HIERARCHY
ROOT mixamorig:Hips
{
	OFFSET 0.000000 104.274902 0.000000
	CHANNELS 6 Xposition Yposition Zposition Xrotation Yrotation Zrotation
	JOINT mixamorig:Spine
	{
		OFFSET 0.000000 10.181549 0.131524
		CHANNELS 6 Xposition Yposition Zposition Xrotation Yrotation Zrotation
		JOINT mixamorig:Spine1
		{
			OFFSET 0.000000 9.893990 -1.470706
			CHANNELS 3 Xrotation Yrotation Zrotation
			JOINT mixamorig:Spine2
			{
				OFFSET 0.000000 9.220787 -1.370636
				CHANNELS 3 Xrotation Yrotation Zrotation
				JOINT mixamorig:Neck
				{
					OFFSET 0.000000 16.740372 -2.049023
					CHANNELS 6 Xposition Yposition Zposition Xrotation Yrotation Zrotation
					JOINT mixamorig:Head
					{
						OFFSET 0.000000 9.617859 1.684975
						CHANNELS 6 Xposition Yposition Zposition Xrotation Yrotation Zrotation
						JOINT mixamorig:HeadTop_End
						{
							OFFSET 0.000000 22.037369 7.501070
							CHANNELS 6 Xposition Yposition Zposition Xrotation Yrotation Zrotation
							End Site
							{
								OFFSET 0.000000 23.106567 -2.828246
							}
						}
					}
				}
				JOINT mixamorig:RightShoulder
				{
					OFFSET -4.570000 11.014862 -2.160841
					CHANNELS 6 Xposition Yposition Zposition Xrotation Yrotation Zrotation
					JOINT mixamorig:RightArm
					{
						OFFSET -10.592869 -0.524796 -2.232105
						CHANNELS 3 Xrotation Yrotation Zrotation
						JOINT mixamorig:RightForeArm
						{
							OFFSET -27.841499 0.000000 0.000000
							CHANNELS 3 Xrotation Yrotation Zrotation
							JOINT mixamorig:RightHand
							{
								OFFSET -28.328800 0.000000 0.000000
								CHANNELS 3 Xrotation Yrotation Zrotation
								JOINT mixamorig:RightHandThumb1
								{
									OFFSET -2.464798 -1.573990 2.681910
									CHANNELS 6 Xposition Yposition Zposition Xrotation Yrotation Zrotation
									JOINT mixamorig:RightHandThumb2
									{
										OFFSET -3.244789 -1.873367 1.873378
										CHANNELS 3 Xrotation Yrotation Zrotation
										JOINT mixamorig:RightHandThumb3
										{
											OFFSET -2.646255 -1.527817 1.527816
											CHANNELS 3 Xrotation Yrotation Zrotation
											JOINT mixamorig:RightHandThumb4
											{
												OFFSET -1.994583 -1.151581 1.151575
												CHANNELS 3 Xrotation Yrotation Zrotation
												End Site
												{
													OFFSET -1.860176 -1.142715 1.365483
												}
											}
										}
									}
								}
								JOINT mixamorig:RightHandIndex1
								{
									OFFSET -9.108299 -0.517883 2.259803
									CHANNELS 6 Xposition Yposition Zposition Xrotation Yrotation Zrotation
									JOINT mixamorig:RightHandIndex2
									{
										OFFSET -3.700005 0.000000 0.000000
										CHANNELS 3 Xrotation Yrotation Zrotation
										JOINT mixamorig:RightHandIndex3
										{
											OFFSET -2.849998 0.000000 0.000000
											CHANNELS 3 Xrotation Yrotation Zrotation
											JOINT mixamorig:RightHandIndex4
											{
												OFFSET -2.772202 0.000000 0.000000
												CHANNELS 3 Xrotation Yrotation Zrotation
												End Site
												{
													OFFSET -2.772202 0.000000 -0.000484
												}
											}
										}
									}
								}
								JOINT mixamorig:RightHandMiddle1
								{
									OFFSET -9.532501 0.000000 0.000000
									CHANNELS 6 Xposition Yposition Zposition Xrotation Yrotation Zrotation
									JOINT mixamorig:RightHandMiddle2
									{
										OFFSET -3.699997 0.000000 0.000000
										CHANNELS 3 Xrotation Yrotation Zrotation
										JOINT mixamorig:RightHandMiddle3
										{
											OFFSET -2.950005 0.000000 0.000000
											CHANNELS 3 Xrotation Yrotation Zrotation
											JOINT mixamorig:RightHandMiddle4
											{
												OFFSET -2.946602 0.000000 0.000000
												CHANNELS 3 Xrotation Yrotation Zrotation
												End Site
												{
													OFFSET -2.946594 0.000000 -0.000982
												}
											}
										}
									}
								}
								JOINT mixamorig:RightHandRing1
								{
									OFFSET -9.103600 -0.043106 -1.865100
									CHANNELS 6 Xposition Yposition Zposition Xrotation Yrotation Zrotation
									JOINT mixamorig:RightHandRing2
									{
										OFFSET -3.379303 0.000000 0.000000
										CHANNELS 3 Xrotation Yrotation Zrotation
										JOINT mixamorig:RightHandRing3
										{
											OFFSET -2.889702 0.000000 0.000000
											CHANNELS 3 Xrotation Yrotation Zrotation
											JOINT mixamorig:RightHandRing4
											{
												OFFSET -2.638794 0.000000 0.000000
												CHANNELS 3 Xrotation Yrotation Zrotation
												End Site
												{
													OFFSET -2.638794 0.000000 0.004219
												}
											}
										}
									}
								}
								JOINT mixamorig:RightHandPinky1
								{
									OFFSET -8.076698 -0.486725 -3.806297
									CHANNELS 6 Xposition Yposition Zposition Xrotation Yrotation Zrotation
									JOINT mixamorig:RightHandPinky2
									{
										OFFSET -3.600006 0.000000 0.000000
										CHANNELS 3 Xrotation Yrotation Zrotation
										JOINT mixamorig:RightHandPinky3
										{
											OFFSET -2.099998 0.000000 0.000000
											CHANNELS 3 Xrotation Yrotation Zrotation
											JOINT mixamorig:RightHandPinky4
											{
												OFFSET -2.115799 0.000000 0.000000
												CHANNELS 3 Xrotation Yrotation Zrotation
												End Site
												{
													OFFSET -2.115799 0.000000 0.000174
												}
											}
										}
									}
								}
							}
						}
					}
				}
				JOINT mixamorig:LeftShoulder
				{
					OFFSET 4.570400 11.014664 -2.160817
					CHANNELS 6 Xposition Yposition Zposition Xrotation Yrotation Zrotation
					JOINT mixamorig:LeftArm
					{
						OFFSET 10.592365 -0.524597 -2.232113
						CHANNELS 3 Xrotation Yrotation Zrotation
						JOINT mixamorig:LeftForeArm
						{
							OFFSET 27.841499 0.000000 0.000000
							CHANNELS 3 Xrotation Yrotation Zrotation
							JOINT mixamorig:LeftHand
							{
								OFFSET 28.328804 0.000000 0.000000
								CHANNELS 3 Xrotation Yrotation Zrotation
								JOINT mixamorig:LeftHandThumb1
								{
									OFFSET 2.466095 -1.576202 2.681697
									CHANNELS 6 Xposition Yposition Zposition Xrotation Yrotation Zrotation
									JOINT mixamorig:LeftHandThumb2
									{
										OFFSET 3.243317 -1.872528 1.872528
										CHANNELS 3 Xrotation Yrotation Zrotation
										JOINT mixamorig:LeftHandThumb3
										{
											OFFSET 2.647881 -1.528763 1.528755
											CHANNELS 3 Xrotation Yrotation Zrotation
											JOINT mixamorig:LeftHandThumb4
											{
												OFFSET 1.998924 -1.154068 1.154079
												CHANNELS 3 Xrotation Yrotation Zrotation
												End Site
												{
													OFFSET 1.884041 -1.149155 1.337651
												}
											}
										}
									}
								}
								JOINT mixamorig:LeftHandIndex1
								{
									OFFSET 9.109299 -0.518005 2.259899
									CHANNELS 6 Xposition Yposition Zposition Xrotation Yrotation Zrotation
									JOINT mixamorig:LeftHandIndex2
									{
										OFFSET 3.699997 0.000000 0.000000
										CHANNELS 3 Xrotation Yrotation Zrotation
										JOINT mixamorig:LeftHandIndex3
										{
											OFFSET 2.849998 0.000000 0.000000
											CHANNELS 3 Xrotation Yrotation Zrotation
											JOINT mixamorig:LeftHandIndex4
											{
												OFFSET 2.774902 0.000000 0.000000
												CHANNELS 3 Xrotation Yrotation Zrotation
												End Site
												{
													OFFSET 2.774902 0.000000 -0.000072
												}
											}
										}
									}
								}
								JOINT mixamorig:LeftHandMiddle1
								{
									OFFSET 9.533394 0.000000 0.000000
									CHANNELS 6 Xposition Yposition Zposition Xrotation Yrotation Zrotation
									JOINT mixamorig:LeftHandMiddle2
									{
										OFFSET 3.700005 0.000000 0.000000
										CHANNELS 3 Xrotation Yrotation Zrotation
										JOINT mixamorig:LeftHandMiddle3
										{
											OFFSET 2.949997 0.000000 0.000000
											CHANNELS 3 Xrotation Yrotation Zrotation
											JOINT mixamorig:LeftHandMiddle4
											{
												OFFSET 2.952904 0.000000 0.000000
												CHANNELS 3 Xrotation Yrotation Zrotation
												End Site
												{
													OFFSET 2.952896 0.000000 0.000165
												}
											}
										}
									}
								}
								JOINT mixamorig:LeftHandRing1
								{
									OFFSET 9.104500 -0.042999 -1.865100
									CHANNELS 6 Xposition Yposition Zposition Xrotation Yrotation Zrotation
									JOINT mixamorig:LeftHandRing2
									{
										OFFSET 3.149994 0.000000 0.000000
										CHANNELS 3 Xrotation Yrotation Zrotation
										JOINT mixamorig:LeftHandRing3
										{
											OFFSET 2.950005 0.000000 0.000000
											CHANNELS 3 Xrotation Yrotation Zrotation
											JOINT mixamorig:LeftHandRing4
											{
												OFFSET 2.644295 0.000000 0.000000
												CHANNELS 3 Xrotation Yrotation Zrotation
												End Site
												{
													OFFSET 2.644302 0.000000 0.000083
												}
											}
										}
									}
								}
								JOINT mixamorig:LeftHandPinky1
								{
									OFFSET 8.077797 -0.486893 -3.806301
									CHANNELS 6 Xposition Yposition Zposition Xrotation Yrotation Zrotation
									JOINT mixamorig:LeftHandPinky2
									{
										OFFSET 3.599998 0.000000 0.000000
										CHANNELS 3 Xrotation Yrotation Zrotation
										JOINT mixamorig:LeftHandPinky3
										{
											OFFSET 2.099998 0.000000 0.000000
											CHANNELS 3 Xrotation Yrotation Zrotation
											JOINT mixamorig:LeftHandPinky4
											{
												OFFSET 2.125504 0.000000 0.000000
												CHANNELS 3 Xrotation Yrotation Zrotation
												End Site
												{
													OFFSET 2.125504 0.000000 -0.001254
												}
											}
										}
									}
								}
							}
						}
					}
				}
			}
		}
	}
	JOINT mixamorig:RightUpLeg
	{
		OFFSET -8.207800 -6.751701 -1.599544
		CHANNELS 6 Xposition Yposition Zposition Xrotation Yrotation Zrotation
		JOINT mixamorig:RightLeg
		{
			OFFSET 0.000000 -44.370155 0.345934
			CHANNELS 3 Xrotation Yrotation Zrotation
			JOINT mixamorig:RightFoot
			{
				OFFSET 0.000000 -44.423664 -3.043536
				CHANNELS 3 Xrotation Yrotation Zrotation
				JOINT mixamorig:RightToeBase
				{
					OFFSET 0.000000 -8.728685 10.710592
					CHANNELS 3 Xrotation Yrotation Zrotation
					JOINT mixamorig:RightToe_End
					{
						OFFSET 0.000000 -0.000664 9.278099
						CHANNELS 3 Xrotation Yrotation Zrotation
						End Site
						{
							OFFSET 0.000000 -0.000664 9.278101
						}
					}
				}
			}
		}
	}
	JOINT mixamorig:LeftUpLeg
	{
		OFFSET 8.207800 -6.751701 -1.599544
		CHANNELS 6 Xposition Yposition Zposition Xrotation Yrotation Zrotation
		JOINT mixamorig:LeftLeg
		{
			OFFSET 0.000000 -44.370049 0.346940
			CHANNELS 3 Xrotation Yrotation Zrotation
			JOINT mixamorig:LeftFoot
			{
				OFFSET 0.000000 -44.423603 -3.044389
				CHANNELS 3 Xrotation Yrotation Zrotation
				JOINT mixamorig:LeftToeBase
				{
					OFFSET 0.000000 -8.728686 10.710592
					CHANNELS 3 Xrotation Yrotation Zrotation
					JOINT mixamorig:LeftToe_End
					{
						OFFSET 0.000000 -0.000680 9.278100
						CHANNELS 3 Xrotation Yrotation Zrotation
						End Site
						{
							OFFSET 0.000000 -0.000680 9.278100
						}
					}
				}
			}
		}
	}
}
MOTION
Frames: 4
Frame Time: 0.033333
2.299762 98.798393 0.301541 -3.327197 12.161757 0.448485 0.000000 10.181574 0.131524 2.503312 1.124102 0.549152 4.101649 2.012028 0.685986 4.104385 2.011868 0.671877 0.000000 16.740372 -2.049022 9.196425 0.872775 1.102199 0.000002 9.617845 1.684978 -11.508076 2.951433 5.035583 -0.000001 22.037369 7.501071 0.000000 -0.000001 -0.000001 -4.570000 11.014862 -2.160841 0.197825 -0.147322 -1.646650 -62.900626 1.818237 -12.899965 0.000473 95.308617 -0.000522 -11.290194 15.270792 9.648446 -2.464790 -1.574004 2.681929 -27.704200 13.038161 -4.924075 15.552348 -33.354679 -2.319520 -0.450976 -40.747457 -10.630920 -0.000001 0.000000 0.000004 -9.108311 -0.517905 2.259815 2.208794 -7.459213 95.765058 6.704871 -6.943971 87.987890 0.615136 -2.864124 24.238014 -0.000001 0.000005 -0.000000 -9.532495 -0.000011 0.000014 6.968536 -6.956272 92.946341 7.123638 -6.945996 91.450058 0.991271 -3.487848 30.243804 -0.000003 -0.000003 -0.000000 -9.103590 -0.043116 -1.865087 7.953836 -6.875582 97.943403 7.265424 -6.941007 92.622939 1.390475 -4.383232 38.146948 -0.000004 -0.000000 0.000000 -8.076690 -0.486736 -3.806287 10.816142 -5.801875 119.293147 7.761691 -6.900666 96.739637 2.233387 -5.109498 47.197994 0.000003 -0.000006 0.000002 4.570401 11.014643 -2.160816 0.259085 -2.012991 4.049652 -62.934551 14.972536 20.983528 0.000014 -101.227099 0.000027 -26.122402 -13.801399 4.946007 2.466091 -1.576217 2.681700 -10.722226 -4.663515 0.930522 17.554230 42.198821 -9.256915 46.520056 56.618129 -27.155439 0.000003 0.000001 0.000003 9.109298 -0.518009 2.259900 6.105287 7.078748 -98.705939 5.337061 6.706682 -77.002596 0.402823 2.324895 -19.658567 0.000002 0.000001 -0.000006 9.533416 -0.000002 0.000003 6.898755 6.881383 -90.297997 7.664368 6.836883 -96.550762 1.165408 3.838019 -33.772133 0.000000 0.000001 -0.000001 9.104493 -0.043000 -1.865094 8.259249 6.749911 -104.185841 6.304058 6.857230 -85.177404 0.602430 2.821440 -24.102737 -0.000002 -0.000000 -0.000001 8.077800 -0.486887 -3.806293 9.811953 6.919540 -89.253729 6.064255 2.746604 -83.189191 0.493311 2.563880 -21.779933 0.000001 0.000002 -0.000003 -8.207798 -6.751693 -1.599541 -12.734486 -13.225574 -11.402731 32.420251 -9.633037 -2.348189 -12.094995 -14.247052 12.934563 -0.011541 -0.000003 -0.000008 -0.000000 0.000000 0.000000 8.207798 -6.751671 -1.599544 -18.275131 11.075261 9.918937 34.499094 -2.360669 3.178886 -13.458990 1.278002 -7.506786 -0.000019 -0.000012 0.000003 -0.000000 0.000000 0.000000 
2.111864 98.765259 0.348487 -3.674439 8.848543 0.034858 -0.000000 10.181561 0.131526 2.548463 0.828655 0.566248 4.176737 1.489447 0.715426 4.178852 1.489039 0.704309 0.000001 16.740360 -2.049022 9.231512 0.058465 1.206961 0.000001 9.617827 1.684976 -10.913415 -0.954503 4.122140 -0.000001 22.037369 7.501072 -0.000000 -0.000001 0.000000 -4.570001 11.014864 -2.160840 0.229664 0.157687 -1.631092 -62.970813 1.531031 -13.419139 0.000363 95.218650 -0.000399 -11.980583 15.051338 9.037775 -2.464799 -1.573991 2.681914 -27.646461 13.053421 -5.007257 15.552349 -33.354676 -2.319525 -0.449126 -40.721656 -10.624837 -0.000002 0.000003 -0.000000 -9.108322 -0.517880 2.259807 2.205444 -7.451520 95.680746 6.700001 -6.943800 87.947701 0.614616 -2.862974 24.227511 0.000000 -0.000001 -0.000002 -9.532514 0.000003 0.000002 6.963118 -6.956265 92.894309 7.122788 -6.946032 91.443071 0.990801 -3.488163 30.244030 -0.000002 -0.000002 0.000002 -9.103591 -0.043097 -1.865099 7.947051 -6.876547 97.898331 7.261377 -6.941196 92.589450 1.390834 -4.381150 38.135808 0.000002 -0.000000 -0.000000 -8.076695 -0.486717 -3.806294 10.807044 -5.807423 119.250991 7.757085 -6.901215 96.701299 2.232991 -5.109150 47.193540 -0.000002 -0.000002 0.000002 4.570400 11.014649 -2.160816 0.198348 -1.551789 4.183861 -61.932406 14.752310 18.662843 -0.000055 -101.433726 -0.000060 -25.345659 -13.619658 5.857174 2.466078 -1.576192 2.681695 -10.669552 -4.634487 0.954511 17.574710 42.227634 -9.272148 46.511017 56.614407 -27.148049 -0.000002 -0.000002 0.000001 9.109276 -0.517990 2.259899 6.113571 7.074315 -98.606314 5.313339 6.701191 -76.799187 0.402793 2.324794 -19.657792 -0.000000 0.000000 0.000001 9.533395 0.000011 -0.000001 6.890889 6.881389 -90.229524 7.662490 6.837086 -96.535018 1.165073 3.837531 -33.767151 0.000000 0.000000 0.000001 9.104498 -0.042981 -1.865095 8.250222 6.751576 -104.079959 6.298874 6.856793 -85.133930 0.602427 2.821408 -24.102325 -0.000001 0.000000 0.000001 8.077776 -0.486893 -3.806297 9.813652 6.924219 -89.164370 6.060862 2.746211 -83.160996 0.491979 2.560578 -21.750188 -0.000002 -0.000001 -0.000001 -8.207802 -6.751695 -1.599540 -13.163133 -13.198549 -11.365327 32.670547 -9.537362 -2.187153 -12.310131 -10.949962 12.506840 -0.005310 0.000009 -0.000004 -0.000000 -0.000000 0.000000 8.207800 -6.751688 -1.599543 -17.532674 11.822996 10.994092 34.648778 -0.258240 2.787632 -13.875827 1.397604 -8.172866 -0.000006 -0.000009 -0.000002 0.000000 0.000002 0.000000 
1.917791 98.712524 0.385948 -3.961612 5.364832 -0.437854 0.000000 10.181548 0.131523 2.583680 0.539398 0.610897 4.237384 0.979095 0.791335 4.238969 0.978288 0.783353 0.000001 16.740383 -2.049025 9.235025 -0.567669 1.246416 0.000000 9.617819 1.684987 -10.811252 -3.932230 3.282946 0.000000 22.037384 7.501070 -0.000000 0.000000 0.000000 -4.570000 11.014878 -2.160840 0.292990 0.744918 -1.792045 -63.237709 1.014004 -14.639739 0.000570 95.096362 -0.000603 -12.906019 14.983657 9.016030 -2.464803 -1.573980 2.681899 -27.640712 13.029449 -4.986764 15.552348 -33.354676 -2.319529 -0.447788 -40.705376 -10.620925 -0.000004 -0.000003 0.000002 -9.108324 -0.517890 2.259798 2.225797 -7.444627 95.629267 6.700031 -6.943828 87.947872 0.613713 -2.860949 24.209611 -0.000000 0.000000 0.000001 -9.532516 -0.000002 -0.000000 6.957106 -6.956294 92.847379 7.124088 -6.946010 91.453849 0.989517 -3.487088 30.230947 0.000001 0.000002 -0.000000 -9.103621 -0.043100 -1.865108 7.944247 -6.876958 97.883571 7.259957 -6.941250 92.577948 1.390506 -4.378239 38.115632 0.000002 -0.000001 0.000000 -8.076702 -0.486734 -3.806300 10.804071 -5.808877 119.269897 7.750143 -6.902013 96.643570 2.232931 -5.109069 47.192844 0.000001 0.000000 0.000001 4.570402 11.014647 -2.160816 0.135976 -1.103374 4.351242 -60.684414 15.237124 16.234245 0.000052 -101.663384 0.000051 -23.802316 -13.622618 7.508018 2.466080 -1.576229 2.681701 -10.600364 -4.594754 0.981746 17.580881 42.236374 -9.276827 46.514503 56.615547 -27.149783 0.000007 -0.000000 0.000005 9.109270 -0.518034 2.259901 6.121539 7.069872 -98.504162 5.300662 6.698215 -76.690559 0.403141 2.325778 -19.666352 0.000001 -0.000002 0.000002 9.533376 -0.000017 0.000003 6.880847 6.881380 -90.142801 7.661657 6.837172 -96.527881 1.167990 3.841895 -33.811014 0.000002 -0.000001 -0.000002 9.104509 -0.043025 -1.865100 8.244173 6.752604 -103.999104 6.289064 6.855954 -85.051763 0.601637 2.819666 -24.086566 0.000001 0.000001 -0.000000 8.077797 -0.486910 -3.806294 9.813499 6.929724 -89.059608 6.052005 2.745132 -83.086594 0.492536 2.561966 -21.762803 0.000001 0.000001 -0.000004 -8.207802 -6.751717 -1.599543 -13.691926 -13.016039 -11.129856 32.949833 -9.185260 -2.203309 -12.480962 -7.975965 12.096281 -0.004197 -0.000003 -0.000000 -0.000000 -0.000000 -0.000000 8.207799 -6.751696 -1.599545 -16.864555 12.682842 12.162034 34.871172 1.876145 2.258282 -14.299044 1.520082 -8.817695 -0.000056 -0.000017 0.000001 -0.000000 0.000000 0.000000 
1.712431 98.648445 0.389709 -4.276949 1.649508 -0.961871 -0.000000 10.181558 0.131525 2.635948 0.223888 0.602076 4.326630 0.421192 0.798494 4.327143 0.421386 0.793887 0.000000 16.740368 -2.049022 9.279859 -0.973712 1.453586 -0.000000 9.617826 1.684977 -11.175488 -5.677567 2.616783 -0.000002 22.037354 7.501071 0.000000 -0.000000 0.000000 -4.570001 11.014840 -2.160840 0.312223 0.991530 -1.689035 -63.461869 0.807276 -14.903352 0.000516 94.909570 -0.000553 -13.013764 15.279355 8.106726 -2.464814 -1.574006 2.681901 -27.555421 13.029405 -5.085739 15.552346 -33.354676 -2.319527 -0.445326 -40.668323 -10.612273 -0.000004 0.000003 -0.000000 -9.108309 -0.517895 2.259798 2.224029 -7.437338 95.550426 6.697103 -6.943700 87.923755 0.612122 -2.857404 24.177534 -0.000003 0.000003 -0.000001 -9.532513 -0.000012 -0.000005 6.947843 -6.956431 92.793229 7.121501 -6.946070 91.432498 0.987983 -3.485847 30.215599 0.000000 0.000000 -0.000001 -9.103598 -0.043126 -1.865101 7.941454 -6.877366 97.865560 7.250611 -6.941661 92.500371 1.388543 -4.372881 38.071642 -0.000000 -0.000000 -0.000000 -8.076696 -0.486751 -3.806295 10.793686 -5.815232 119.215447 7.739948 -6.903177 96.558678 2.229785 -5.106186 47.157658 0.000004 -0.000001 0.000003 4.570398 11.014645 -2.160817 0.102096 -0.900445 4.508231 -60.418904 15.852620 15.126654 -0.000043 -101.778657 -0.000040 -23.810833 -13.660977 6.644885 2.466096 -1.576206 2.681696 -10.550214 -4.559728 0.984911 17.589566 42.248695 -9.283361 46.549730 56.628907 -27.174594 -0.000003 -0.000000 0.000003 9.109314 -0.517999 2.259896 6.128987 7.065470 -98.397570 5.273120 6.691665 -76.454344 0.403673 2.327287 -19.679498 -0.000000 0.000000 0.000002 9.533381 -0.000002 -0.000001 6.875106 6.881392 -90.092190 7.656109 6.837824 -96.481333 1.166203 3.839180 -33.784083 -0.000002 -0.000000 -0.000000 9.104502 -0.043004 -1.865104 8.241025 6.753100 -103.942953 6.283866 6.855525 -85.008282 0.602532 2.821647 -24.104426 0.000001 -0.000000 -0.000001 8.077805 -0.486885 -3.806308 9.816338 6.934010 -88.979955 6.045622 2.744374 -83.033107 0.492784 2.562571 -21.768173 0.000001 0.000000 -0.000002 -8.207804 -6.751710 -1.599540 -14.249173 -12.718637 -10.751151 33.230086 -8.828278 -2.336854 -12.613257 -4.859689 11.728394 -0.002977 -0.000000 0.000001 -0.000000 -0.000000 0.000000 8.207798 -6.751701 -1.599545 -16.176989 13.680574 13.432730 35.151381 4.109260 1.568127 -14.705348 1.644118 -9.452653 -0.000032 0.000005 -0.000001 -0.000000 0.000000 0.000000 
